<svg xmlns="http://www.w3.org/2000/svg" xml:space="preserve" viewBox="0 0 48 64" width="48" height="64">
  <path fill="#9a9a9a" d="M32.1 0H0v64h48V16L32.1 0zm7.1 42.6c0 4.2-3.6 7.6-7.8 7.6h-15c-4.2 0-7.6-3.4-7.6-7.8v-15c0-4.2 3.4-7.6 7.6-7.6h15.2c4.2 0 7.6 3.4 7.6 7.6v15.2zM32 16V2.8L45.2 16H32z"/>
  <radialGradient id="a" cx="-354.503" cy="435.544" r=".456" gradientTransform="matrix(80 0 0 -80 28375.084 34898.89)" gradientUnits="userSpaceOnUse">
    <stop offset="10%">
			<animate attributeName="stop-color" values="#24708f;#e18d4c;#1f374c;#85c6e0;#24708f;" dur="12s" repeatCount="indefinite" />
		</stop>
		<stop offset="90%">
			<animate attributeName="stop-color" values="#85c6e0;#24708f;#e18d4c;#1f374c;#85c6e0;" dur="24s" repeatCount="indefinite" />
		</stop>
  </radialGradient>
  <path fill="url(#a)" d="M32.3 18.3H15.7c-4.6 0-8.3 3.7-8.3 8.3V43c0 4.8 3.7 8.5 8.3 8.5h16.4c4.6 0 8.5-3.7 8.5-8.3V26.6c0-4.6-3.7-8.3-8.3-8.3zm2.1 24.8h-3.1v-9.4c0-1.3.1-3.4.1-3.4s-.3 2-.7 3.2l-2.8 9.7h-1.7l-4.6-12.7c-.3-.9-.9-2.4-.9-2.4s-.4 1.4-.8 2.4l-4.8 12.6h-1.5l6.2-16.4h1.7l4.7 12.5c.1-.5.5-2.5 1-4.3l2.3-8.2h4.7l.2 16.4z"/>
</svg>
